# xmcd CD database file
#
# Track frame offsets:
#	187
#	21690
#	42487
#	64495
#	85015
#	101770
#	117182
#	139655
#	166547
#	189442
#
# Disc length: 2810 seconds
#
# Revision: 5
# Processed by: cddbd v1.5.2PL0 Copyright (c) Steve Scherf et al.
# Submitted via: CDex 1.70beta2
#
DISCID=860af80a
DTITLE=Deep Purple - The House of Blue Light
DYEAR=1987
DGENRE=Hard Rock
TTITLE0=Bad Attitude
TTITLE1=The Uwritten Law
TTITLE2=Call of the Wild
TTITLE3=Mad Dog
TTITLE4=Black and White
TTITLE5=Hard Lovin' Woman
TTITLE6=The Spanish Archer
TTITLE7=Strangeways
TTITLE8=Mitzie Dupree
TTITLE9=Dead Or Alive
EXTD=YEAR: 1987
EXTT0=
EXTT1=
EXTT2=
EXTT3=
EXTT4=
EXTT5=
EXTT6=
EXTT7=
EXTT8=
EXTT9=
PLAYORDER=
